<svg width="20" height="20" viewBox="0 0 20 20" fill="none" xmlns="http://www.w3.org/2000/svg">
<path d="M10.007 17.8437C10.007 18.2784 9.79963 18.6958 9.48173 18.8697C9.35733 18.9392 9.2329 18.974 9.09468 18.974C8.88736 18.974 8.68006 18.8871 8.5142 18.7132L3.55218 13.531H0.912277C0.414697 13.531 0 13.0267 0 12.3833V7.82708C0 7.20105 0.400876 6.67937 0.912277 6.67937H3.55218L8.5142 1.49717C8.79063 1.21893 9.16383 1.14938 9.48173 1.34067C9.79963 1.53196 10.007 1.93192 10.007 2.36666V17.7915V17.8437ZM13.49 16.0699C13.49 16.0699 13.4485 16.0699 13.4209 16.0699C13.1859 16.0699 12.9509 15.9482 12.785 15.7395L12.6607 15.583C12.3428 15.183 12.3013 14.557 12.5778 14.0875C13.255 12.9397 13.6144 11.5659 13.6144 10.1226C13.6144 8.57486 13.2135 7.1315 12.4395 5.93159C12.1492 5.47946 12.177 4.81863 12.5087 4.40128L12.633 4.24477C12.8127 4.0187 13.0615 3.89697 13.3241 3.91436C13.5867 3.91436 13.8217 4.08827 13.9876 4.33173C15.0519 5.98377 15.6186 7.98361 15.6186 10.1226C15.6186 12.105 15.1209 14.0005 14.1672 15.6004C14.0152 15.8612 13.7664 16.0351 13.5038 16.0525L13.49 16.0699ZM17.2495 19.6C17.0836 19.8435 16.8486 19.9826 16.5998 20C16.5998 20 16.5722 20 16.5584 20C16.3234 20 16.0884 19.8783 15.9226 19.6696L15.7982 19.5131C15.4665 19.0957 15.4388 18.4175 15.7429 17.9654C17.208 15.7743 18.0097 12.9919 18.0097 10.1226C18.0097 7.25323 17.1389 4.27956 15.577 2.05366C15.2591 1.60152 15.273 0.9233 15.6186 0.488553L15.7429 0.332051C15.9226 0.105982 16.1438 -0.015751 16.4064 0.00163885C16.6552 0.00163885 16.8901 0.15815 17.056 0.384218C18.9495 3.06226 20 6.52286 20 10.1226C20 13.5831 19.0187 16.9394 17.2495 19.5827V19.6Z" fill="#00A864"/>
</svg>
